<svg width="24" height="24" viewBox="0 0 24 24" fill="none" xmlns="http://www.w3.org/2000/svg">
<g id="flowbite:file-code-solid">
<path id="Vector" fill-rule="evenodd" clip-rule="evenodd" d="M9 2.221V7H4.221C4.31598 6.8154 4.43912 6.64671 4.586 6.5L8.5 2.586C8.64664 2.43877 8.81533 2.31628 9 2.221ZM11 2V7C11 7.53043 10.7893 8.03914 10.4142 8.41421C10.0391 8.78929 9.53043 9 9 9H4V20C4 20.5304 4.21071 21.0391 4.58579 21.4142C4.96086 21.7893 5.46957 22 6 22H18C18.5304 22 19.0391 21.7893 19.4142 21.4142C19.7893 21.0391 20 20.5304 20 20V4C20 3.46957 19.7893 2.96086 19.4142 2.58579C19.0391 2.21071 18.5304 2 18 2H11ZM10.707 11.293C10.8945 11.4805 10.9998 11.7348 10.9998 12C10.9998 12.2652 10.8945 12.5195 10.707 12.707L9.414 14L10.707 15.293C10.8892 15.4816 10.99 15.7342 10.9877 15.9964C10.9854 16.2586 10.8802 16.5094 10.6948 16.6948C10.5094 16.8802 10.2586 16.9854 9.9964 16.9877C9.7342 16.99 9.4816 16.8892 9.293 16.707L7.293 14.707C7.10553 14.5195 7.00021 14.2652 7.00021 14C7.00021 13.7348 7.10553 13.4805 7.293 13.293L9.293 11.293C9.48053 11.1055 9.73484 11.0002 10 11.0002C10.2652 11.0002 10.5195 11.1055 10.707 11.293ZM13.293 12.707C13.1108 12.5184 13.01 12.2658 13.0123 12.0036C13.0146 11.7414 13.1198 11.4906 13.3052 11.3052C13.4906 11.1198 13.7414 11.0146 14.0036 11.0123C14.2658 11.01 14.5184 11.1108 14.707 11.293L16.707 13.293C16.8945 13.4805 16.9998 13.7348 16.9998 14C16.9998 14.2652 16.8945 14.5195 16.707 14.707L14.707 16.707C14.5184 16.8892 14.2658 16.99 14.0036 16.9877C13.7414 16.9854 13.4906 16.8802 13.3052 16.6948C13.1198 16.5094 13.0146 16.2586 13.0123 15.9964C13.01 15.7342 13.1108 15.4816 13.293 15.293L14.586 14L13.293 12.707Z" fill="#DFDFDF"/>
</g>
</svg>
