<svg width="25" height="24" viewBox="0 0 25 24" fill="none" xmlns="http://www.w3.org/2000/svg">
<path d="M6.77394 16.9345C5.7141 16.9345 4.85207 16.5516 4.20566 15.7913C3.55926 15.0309 3.13504 13.9027 2.88801 12.2611C2.52426 9.84188 2.88519 7.80282 3.90426 6.51985C4.50426 5.76423 5.29176 5.32735 6.18144 5.25704C6.94316 5.1961 8.08176 5.50501 9.18144 7.31954C9.87004 8.45579 10.3936 9.96516 10.6182 11.4605C10.8896 13.2656 10.6875 14.5945 10.0004 15.5222C9.45473 16.2591 8.61566 16.7156 7.50613 16.8816C7.2637 16.9172 7.01898 16.9349 6.77394 16.9345ZM8.61004 23.25C7.99082 23.25 7.36316 23.0517 6.79785 22.6706C5.98213 22.1178 5.4175 21.2655 5.2266 20.2988C5.09301 19.6116 5.17316 19.0655 5.47129 18.6281C5.95551 17.918 6.82457 17.7581 7.74426 17.5884C7.84129 17.5706 7.93973 17.5528 8.03957 17.5336C8.25144 17.4933 8.46801 17.4399 8.67801 17.3878C9.46457 17.1938 10.2783 16.9927 10.95 17.4699C11.3996 17.7886 11.6532 18.3305 11.7291 19.1255C11.8154 20.0428 11.6185 20.9583 11.1746 21.7036C10.6969 22.5056 9.98066 23.0358 9.15894 23.197C8.97811 23.2323 8.79429 23.2501 8.61004 23.25ZM18.2274 12.4345C17.9826 12.4337 17.7382 12.4149 17.4961 12.3783C16.3871 12.2142 15.548 11.7572 15.0024 11.0189C14.3152 10.0913 14.1118 8.76282 14.3846 6.95719C14.6091 5.46048 15.1313 3.95251 15.8166 2.82048C16.9107 1.01251 18.0507 0.698913 18.8166 0.754225C19.7035 0.818913 20.4896 1.24969 21.0905 2.0011C22.1166 3.28407 22.4803 5.32923 22.1152 7.75923C21.8682 9.39985 21.4496 10.5225 20.7975 11.2894C20.1455 12.0563 19.2872 12.4345 18.2274 12.4345ZM16.3913 18.75C16.2075 18.75 16.0242 18.7322 15.8438 18.697C15.0207 18.5358 14.3044 18.0056 13.8282 17.2036C13.3843 16.4583 13.1874 15.5428 13.2736 14.6255C13.3486 13.8286 13.6018 13.2886 14.0527 12.9694C14.7244 12.4927 15.5382 12.6933 16.3247 12.8878C16.5347 12.9394 16.7513 12.9928 16.9632 13.0336L17.258 13.0884C18.1782 13.2577 19.0472 13.4166 19.5314 14.1277C19.8296 14.565 19.9097 15.112 19.7761 15.7983C19.5854 16.7652 19.0208 17.6178 18.2049 18.1706C17.6363 18.5522 17.0086 18.75 16.3913 18.75Z" fill="#DFDFDF"/>
</svg>
