<svg width="27" height="21" viewBox="0 0 27 21" fill="none" xmlns="http://www.w3.org/2000/svg">
<path d="M16.8641 15.1463H10.0615L6.66025 18.9187C6.09194 19.4437 5.37087 19.7555 4.61215 19.8045C3.85343 19.8535 3.10078 19.6369 2.47436 19.1891C1.84793 18.7413 1.38384 18.0882 1.15615 17.334C0.928461 16.5799 0.950306 15.7682 1.2182 15.0285L3.37234 6.89431C3.63975 5.24936 4.45773 3.75563 5.68176 2.67706C6.90579 1.59848 8.45709 1.00447 10.0615 1H16.8641C18.6683 1 20.3985 1.74521 21.6742 3.07168C22.95 4.39816 23.6667 6.19725 23.6667 8.07317C23.6667 9.94909 22.95 11.7482 21.6742 13.0747C20.3985 14.4011 18.6683 15.1463 16.8641 15.1463ZM16.8641 15.1463L20.2654 19.0366C20.837 19.597 21.5776 19.9344 22.3613 19.9914C23.1451 20.0484 23.9236 19.8215 24.5647 19.3494C25.2058 18.8772 25.67 18.1888 25.8783 17.4011C26.0866 16.6135 26.0262 15.7751 25.7074 15.0285L23.5533 6.89431M8.92777 5.71545V10.4309M6.66025 8.07317H11.1953M16.8641 8.07317H19.1316" stroke="white" stroke-width="2" stroke-linecap="round" stroke-linejoin="round"/>
</svg>
