<svg width="26" height="24" viewBox="0 0 26 24" fill="none" xmlns="http://www.w3.org/2000/svg">
<path d="M1.44445 24C1.03519 24 0.692375 23.808 0.416005 23.424C0.139635 23.04 0.000967943 22.5653 4.98084e-06 22C-0.000957982 21.4346 0.137709 20.96 0.416005 20.576C0.694301 20.192 1.03712 20 1.44445 20H24.5555C24.9648 20 25.3081 20.192 25.5854 20.576C25.8628 20.96 26.001 21.4346 26 22C25.999 22.5653 25.8604 23.0406 25.584 23.426C25.3076 23.8113 24.9648 24.0026 24.5555 24H1.44445ZM1.44445 14C1.03519 14 0.692375 13.808 0.416005 13.424C0.139635 13.04 0.000967943 12.5653 4.98084e-06 12C-0.000957982 11.4347 0.137709 10.96 0.416005 10.576C0.694301 10.192 1.03712 9.99999 1.44445 9.99999H24.5555C24.9648 9.99999 25.3081 10.192 25.5854 10.576C25.8628 10.96 26.001 11.4347 26 12C25.999 12.5653 25.8604 13.0407 25.584 13.426C25.3076 13.8113 24.9648 14.0027 24.5555 14H1.44445ZM1.44445 4C1.03519 4 0.692375 3.808 0.416005 3.424C0.139635 3.04 0.000967943 2.56533 4.98084e-06 2C-0.000957982 1.43467 0.137709 0.959999 0.416005 0.576C0.694301 0.192 1.03712 0 1.44445 0H24.5555C24.9648 0 25.3081 0.192 25.5854 0.576C25.8628 0.959999 26.001 1.43467 26 2C25.999 2.56533 25.8604 3.04066 25.584 3.426C25.3076 3.81133 24.9648 4.00266 24.5555 4H1.44445Z" fill="white"/>
</svg>
